<svg width="39" height="39" viewBox="0 0 39 39" fill="none" xmlns="http://www.w3.org/2000/svg">
<path d="M8.60741 35.1508C9.84841 33.9098 9.84841 31.8968 8.60741 30.6558C7.36641 29.4148 5.35341 29.4148 4.11241 30.6558C2.87141 31.8968 1.84741 37.4168 1.84741 37.4168C1.84741 37.4168 7.36641 36.3928 8.60841 35.1518L8.60741 35.1508Z" fill="#FF3D29"/>
<path d="M13.5934 34.4698L4.79739 25.6738C4.50539 25.3818 4.60639 24.8878 4.98839 24.7328L9.03239 23.0918L16.1984 30.2578L14.5324 34.2828C14.3754 34.6618 13.8844 34.7598 13.5934 34.4698Z" fill="#8595AA"/>
<path d="M34.1274 9.44579L27.9874 35.5578C27.3444 38.2928 23.9484 39.2588 21.9624 37.2718L1.99141 17.2998C0.00540626 15.3138 0.971406 11.9178 3.70541 11.2748L29.8174 5.13479C32.4094 4.52579 34.7374 6.85379 34.1284 9.44579H34.1274Z" fill="#8595AA"/>
<path d="M34.8674 4.39552C37.476 7.00403 37.4752 11.2389 34.8674 13.8467L16.6983 32.0158L7.24714 22.5646L25.4163 4.39552C28.0248 1.787 32.2596 1.78771 34.8674 4.39552Z" fill="#D0D6DE"/>
<path d="M28.6374 14.4718C30.762 14.4718 32.4844 12.7495 32.4844 10.6248C32.4844 8.50019 30.762 6.77783 28.6374 6.77783C26.5128 6.77783 24.7904 8.50019 24.7904 10.6248C24.7904 12.7495 26.5128 14.4718 28.6374 14.4718Z" fill="#6BA0FF"/>
</svg>
